<!-- Copyright © 2015 MODULUS Sp. z o. o. / FUTURAMO™ --><svg xmlns="http://www.w3.org/2000/svg" x="0px" y="0px" width="32px" height="32px" viewBox="0 0 32 32"><path  fill="#35393E" d="M26,10.002V4c0-1.105-0.895-2-2-2s-2,0.895-2,2v2.002l-3.879-3.879c-1.171-1.172-3.071-1.172-4.242,0 L0.707,15.295c-0.391,0.391-0.391,1.024,0,1.414l1.416,1.416c0.391,0.39,1.023,0.391,1.414,0L4,17.662V24c0,4.418,3.582,8,8,8h8 c4.418,0,8-3.582,8-8v-6.338l0.463,0.463c0.391,0.39,1.023,0.39,1.414,0l1.416-1.415c0.188-0.188,0.293-0.442,0.293-0.707 c0-0.265-0.105-0.52-0.293-0.707L26,10.002z M24,24c0,2.206-1.794,4-4,4v-8c0-1.105-0.895-2-2-2h-4c-1.105,0-2,0.895-2,2v8 c-2.206,0-4-1.794-4-4V13.662l8-8.002l8,8.002V24z"></path></svg>