<!-- Copyright © 2015 MODULUS Sp. z o. o. / FUTURAMO™ --><svg xmlns="http://www.w3.org/2000/svg" x="0px" y="0px" width="64px" height="64px" viewBox="0 0 32 32"><path  fill="#FFFFFF" d="M7.515,24.485c-4.679-4.679-4.679-12.292,0-16.971c4.679-4.679,12.292-4.679,16.971,0 c4.679,4.679,4.679,12.292,0,16.971C19.807,29.164,12.194,29.164,7.515,24.485 M4.687,27.313c6.248,6.249,16.379,6.249,22.626,0 c6.249-6.248,6.249-16.379,0-22.626c-6.248-6.249-16.379-6.249-22.626,0C-1.562,10.935-1.562,21.065,4.687,27.313L4.687,27.313z  M15.143,20.571c0.181,0.301,0.506,0.486,0.857,0.486c0.351,0,0.677-0.184,0.857-0.486l4.234-7.056 c0.185-0.309,0.19-0.694,0.013-1.007C20.926,12.194,20.594,12,20.234,12l-8.467,0c-0.36,0-0.693,0.194-0.87,0.507 s-0.173,0.698,0.013,1.007L15.143,20.571z"></path></svg>