<!-- Copyright © 2015 MODULUS Sp. z o. o. / FUTURAMO™ --><svg xmlns="http://www.w3.org/2000/svg" x="0px" y="0px" width="32px" height="32px" viewBox="0 0 32 32"><path  fill="#35393E" d="M28.8,9.6l-2.854-2.141C25.68,5.509,24.023,4,22,4h-0.667L17.8,1.35c-0.533-0.4-1.167-0.6-1.8-0.6 s-1.267,0.2-1.8,0.6L10.667,4H10C7.977,4,6.32,5.509,6.055,7.459L3.2,9.6C1.186,11.111,0,13.482,0,16v8c0,4.418,3.582,8,8,8h16 c4.418,0,8-3.582,8-8v-8C32,13.482,30.814,11.111,28.8,9.6z M26,12.5l0.4,0.3c0.494,0.37,0.887,0.85,1.161,1.39L26,15.439V12.5z  M8,8c0-1.103,0.897-2,2-2h12c1.103,0,2,0.897,2,2v9.039l-4.601,3.681l-1.525-1.22c-0.548-0.438-1.211-0.658-1.874-0.658 s-1.326,0.219-1.874,0.658l-1.525,1.22L8,17.039V8z M5.601,12.8L6,12.501v2.938L4.438,14.19C4.713,13.65,5.106,13.17,5.601,12.8z  M4,24v-7.6l7,5.6l-5.909,4.728C4.419,26.012,4,25.057,4,24z M24,28H8c-0.379,0-0.739-0.07-1.087-0.169l8.463-6.77 c0.226-0.181,0.464-0.219,0.624-0.219s0.398,0.038,0.625,0.219l8.462,6.77C24.739,27.93,24.379,28,24,28z M28,24 c0,1.057-0.419,2.012-1.091,2.728L21,22l7-5.6V24z"></path></svg>