<!-- Copyright © 2015 MODULUS Sp. z o. o. / FUTURAMO™ --><svg xmlns="http://www.w3.org/2000/svg" x="0px" y="0px" width="32px" height="32px" viewBox="0 0 32 32"><path  fill="#35393E" d="M8,0C3.582,0,0,3.582,0,8v16c0,4.418,3.582,8,8,8h9.092V19.608h-2.67c-0.828,0-1.5-0.672-1.5-1.5v-1.83 c0-0.828,0.672-1.5,1.5-1.5h2.67v-3.562c0-4.133,2.524-6.384,6.211-6.384c0.865,0,1.67,0.031,2.318,0.071 c0.793,0.048,1.408,0.703,1.408,1.497v1.443c0,0.828-0.671,1.5-1.499,1.5l-1.058,0c-2.005,0-2.393,0.953-2.393,2.351v3.083h3.076 c0.431,0,0.842,0.186,1.126,0.509s0.416,0.755,0.361,1.182l-0.236,1.83c-0.096,0.748-0.733,1.308-1.488,1.308H22.08V32H24 c4.418,0,8-3.582,8-8V8c0-4.418-3.582-8-8-8H8z"></path></svg>