<?xml version="1.0" encoding="UTF-8" standalone="no"?>
<!DOCTYPE svg PUBLIC "-//W3C//DTD SVG 1.1//EN" "http://www.w3.org/Graphics/SVG/1.1/DTD/svg11.dtd">
<svg width="100%" height="100%" viewBox="0 0 481 481" version="1.1" xmlns="http://www.w3.org/2000/svg" xmlns:xlink="http://www.w3.org/1999/xlink" xml:space="preserve" xmlns:serif="http://www.serif.com/" style="fill-rule:evenodd;clip-rule:evenodd;stroke-linejoin:round;stroke-miterlimit:1.41421;">
    <path id="_x35_3_59_" d="M409.934,70.334C364.579,24.979 304.274,0.001 240.133,0.001C175.991,0.001 115.69,24.979 70.334,70.334C24.979,115.69 0,175.992 0,240.134C0,304.277 24.979,364.577 70.334,409.934C115.689,455.289 175.991,480.267 240.133,480.267C304.275,480.267 364.578,455.289 409.934,409.934C455.29,364.58 480.268,304.277 480.268,240.134C480.268,175.992 455.289,115.689 409.934,70.334ZM372.448,396.754C372.441,386.344 372.432,378.622 372.423,376.108C372.47,366.081 372.149,125.315 372.149,125.315L366.656,125.29C366.656,125.29 321.839,150.583 321.839,338.141C356.282,347.601 341.79,385.224 339.167,389.996C339.167,393.012 339.24,404.847 339.341,419.629C320.428,430.124 299.695,437.715 277.741,441.799C277.749,398.764 277.757,345.368 277.757,338.769C277.734,328.623 259.267,286.226 290.126,254.738C290.149,254.691 290.22,254.607 290.267,254.543C297.792,247.408 302.765,237.577 303.514,226.533C303.56,225.755 303.538,223.797 303.538,223.797L292.974,132.229L283.242,132.217L286.128,234.259L274.425,234.235L274.425,132.205L265.865,132.229L265.865,234.895L256.171,234.895L256.158,132.217L246.734,132.229L246.722,234.895L235.238,234.895L238.519,132.193L229.635,132.193L218.828,219.055C218.828,219.055 218.56,222.326 218.56,223.565C218.56,236.96 224.773,248.941 234.482,256.732C266.491,292.857 244.642,329.703 244.642,338.461C244.658,344.317 244.663,401.174 244.665,445.21C243.157,445.243 241.647,445.268 240.133,445.268C212.866,445.268 186.831,439.908 163.009,430.206C163.009,388.797 163.009,343.013 163.009,337.727C155.378,317.099 148.267,281.321 159.056,266.188C178.782,260.222 201.374,233.388 201.386,195.781C201.386,158.484 181.191,124.171 145.347,123.589L145.347,123.565C145.175,123.565 144.581,123.565 144.409,123.565C144.409,123.565 144.409,123.577 144.409,123.589C108.57,124.171 88.382,158.484 88.382,195.781C88.37,233.388 110.986,260.222 130.7,266.188C141.507,281.321 134.386,317.099 126.755,337.727C126.755,342.202 126.755,375.704 126.755,411.001C71.493,374.208 35,311.356 35,240.134C35,127.023 127.022,35.001 240.133,35.001C353.244,35.001 445.268,127.023 445.268,240.134C445.268,302.862 416.955,359.095 372.448,396.754ZM112.119,210.633C112.434,213.175 113.336,216.051 114.208,218.633C115.022,221.327 116.008,223.991 117.063,226.543C119.081,231.695 121.258,236.472 123.128,240.59C125.027,244.673 126.712,248.091 128.029,250.387C129.282,252.743 130.422,253.752 130.504,253.658C130.527,253.775 128.83,253.404 126.641,251.617C124.405,249.889 121.549,247.13 118.557,243.499C115.519,239.874 112.375,235.38 109.407,230.211C107.972,227.612 106.612,224.84 105.348,221.909C104.143,218.846 103.147,215.897 102.471,212.407C101.23,205.695 101.438,199.281 102.137,193.376C102.795,187.477 104.047,182.094 105.444,177.615C106.809,173.104 108.376,169.477 109.674,167.003C110.94,164.486 111.971,163.295 111.971,163.295C111.971,163.295 111.752,164.897 111.643,167.55C111.562,170.209 111.425,174.025 111.288,178.582C111.183,187.565 110.441,199.779 112.119,210.633Z" style="fill:white;fill-rule:nonzero;"/>
</svg>
