<!-- Copyright © 2015 MODULUS Sp. z o. o. / FUTURAMO™ --><svg xmlns="http://www.w3.org/2000/svg" x="0px" y="0px" width="32px" height="32px" viewBox="0 0 32 32"><path  fill="#FFFFFF" d="M21.518,21.73c-1.127-0.133-2.541,2.099-3.381,2.055c-1.306-0.069-4.331-1.905-6.193-3.728 c-1.823-1.862-3.659-4.887-3.728-6.193c-0.044-0.84,2.188-2.254,2.055-3.381c-0.171-1.454-3.138-5.679-4.442-5.988 C4.757,4.24,2.68,6.781,2.174,8.642c-0.482,1.773,1.957,8.319,5.585,12.751c0.44,0.538,0.888,1.049,1.339,1.509 c0.46,0.451,0.971,0.898,1.509,1.339c4.431,3.629,10.977,6.067,12.751,5.585c1.861-0.505,4.402-2.583,4.148-3.654 C27.197,24.867,22.972,21.901,21.518,21.73z"></path></svg>