<!-- Copyright © 2015 MODULUS Sp. z o. o. / FUTURAMO™ --><svg xmlns="http://www.w3.org/2000/svg" x="0px" y="0px" width="32px" height="32px" viewBox="0 0 32 32"><path  fill="#35393E" d="M8,0C3.582,0,0,3.582,0,8v16c0,4.418,3.582,8,8,8h16c4.418,0,8-3.582,8-8V8c0-4.418-3.582-8-8-8H8z  M27.134,10.478c0.012,0.253,0.016,0.507,0.016,0.762c0,7.785-5.777,16.76-16.343,16.76c-2.402,0-4.681-0.535-6.735-1.491 c-0.246-0.115-0.385-0.381-0.338-0.649c0.047-0.268,0.269-0.47,0.54-0.493c1.728-0.148,4.142-0.703,6.23-2.454 c-2.91-0.129-4.333-1.939-4.953-3.107c-0.1-0.188-0.092-0.415,0.019-0.596s0.311-0.29,0.524-0.285 c0.461,0.011,1.043-0.028,1.639-0.203c-3.301-0.774-4.239-3.298-4.505-4.766c-0.038-0.212,0.04-0.428,0.205-0.566 c0.165-0.138,0.392-0.178,0.593-0.103c0.478,0.177,1.091,0.34,1.701,0.323C2.615,11.2,2.999,8.239,3.542,6.669 c0.07-0.201,0.241-0.35,0.45-0.392s0.424,0.031,0.565,0.19c2.814,3.156,6.789,5.204,11.233,5.432 c-0.098-0.431-0.148-0.88-0.148-1.342c0-3.253,2.572-5.89,5.744-5.89c1.652,0,3.145,0.715,4.192,1.86 c1.031-0.208,2.013-0.556,2.925-1.025c0.115-0.059,0.254-0.038,0.346,0.052c0.092,0.09,0.117,0.229,0.061,0.345 C28.42,6.92,27.648,7.774,26.7,8.356c0.931-0.114,1.825-0.34,2.674-0.666c0.083-0.032,0.177-0.005,0.231,0.066 s0.054,0.168,0.002,0.24C28.908,8.943,28.072,9.783,27.134,10.478z"></path></svg>